# xmcd CD database file
#
# Track frame offsets:
#	150
#	21282
#	40142
#	58264
#	82175
#	116402
#	140925
#	161840
#
# Disc length: 2780 seconds
#
# Revision: 1
# Processed by: cddbd v1.5.1PL0 Copyright (c) Steve Scherf et al.
# Submitted via: CDex 1.51
#
DISCID=740ada08
DTITLE=Antero Priha Breadmachine - Eternal Friendship
DYEAR=1998
DGENRE=Jazz
TTITLE0=Big Trouble (Anttila)
TTITLE1=Aino (Priha)
TTITLE2=Hip-Hop Gregorian (Priha)
TTITLE3=Sco (Anttila)
TTITLE4=Eternal Friendship (Priha)
TTITLE5=Clues (Priha)
TTITLE6=Greb Svatsug (Anttila)
TTITLE7=Blue In Green (Miles Davis)
EXTD=YEAR: 1998
EXTT0=
EXTT1=
EXTT2=
EXTT3=
EXTT4=
EXTT5=
EXTT6=
EXTT7=
PLAYORDER=
